<svg width="640" height="480" xmlns="http://www.w3.org/2000/svg" xmlns:svg="http://www.w3.org/2000/svg">
 <!-- Created with SVG-edit - http://svg-edit.googlecode.com/ -->
 <g>
  <title>Layer 1</title>
  <text fill="#333333" stroke-width="0" stroke-dasharray="null" stroke-linejoin="null" stroke-linecap="null" x="344.560008" y="232.481503" font-size="24" font-family="Sans-serif" text-anchor="middle" xml:space="preserve" transform="matrix(0.746268630027771,0,0,0.7819420695304871,7.865672469139099,45.35945669282228) " stroke="#666666" id="svg_9">board A</text>
  <rect fill="#000000" stroke-width="2" fill-opacity="0" x="223" y="178.000001" width="178" height="91.000008" id="svg_8" stroke="#666666"/>
  <g id="svg_11">
   <text fill="#333333" stroke-width="0" stroke-dasharray="null" stroke-linejoin="null" stroke-linecap="null" x="138.200001" y="150.710239" id="svg_5" font-size="24" font-family="Sans-serif" text-anchor="middle" xml:space="preserve" transform="matrix(0.746268630027771,0,0,0.7819420695304871,7.865672469139099,45.35945669282228) " stroke="#666666">smart</text>
   <rect fill="#000000" stroke-width="2" fill-opacity="0" x="73" y="108.000001" width="72.000005" height="127.999998" id="svg_2" stroke="#666666"/>
   <text fill="#333333" stroke-width="0" stroke-dasharray="null" stroke-linejoin="null" stroke-linecap="null" x="138.200001" y="174.932483" font-size="24" font-family="Sans-serif" text-anchor="middle" xml:space="preserve" transform="matrix(0.746268630027771,0,0,0.7819420695304871,7.865672469139099,45.35945669282228) " stroke="#666666" id="svg_10">phone</text>
  </g>
  <g id="svg_17">
   <rect fill="#000000" stroke-width="2" fill-opacity="0" x="321.999998" y="207.499999" width="71.000005" height="28.000001" id="svg_12" stroke="#666666"/>
   <text fill="#333333" stroke-width="0" stroke-dasharray="null" stroke-linejoin="null" stroke-linecap="null" x="446.113639" y="209.659676" font-size="24" font-family="Sans-serif" text-anchor="middle" xml:space="preserve" transform="matrix(0.3065294629402259,0,0,0.49776098488729653,219.75253609854366,121.44228074951108) " stroke="#666666" id="svg_13">processing unit</text>
  </g>
  <text fill="#333333" stroke-width="0" stroke-dasharray="null" stroke-linejoin="null" stroke-linecap="null" x="444.886678" y="227.717182" font-size="24" font-family="Sans-serif" text-anchor="middle" xml:space="preserve" transform="matrix(0.4695956218796482,0,0,0.6981755122740365,66.0843382919751,128.2811980493021) " stroke="#666666" id="svg_19">wireless B</text>
  <path fill="#ffffff" stroke="#666666" stroke-width="2" stroke-dasharray="null" stroke-linejoin="null" stroke-linecap="null" d="m313.795013,144.100266c0,4.786102 -17.460327,8.666595 -38.999603,8.666595m38.999603,-8.666595l0,0c0,4.786102 -17.460327,8.666595 -38.999603,8.666595c-21.539154,0 -39.000427,-3.880493 -39.000427,-8.666595m0,0l0,0c0,-4.786545 17.461273,-8.666931 39.000427,-8.666931c21.539276,0 38.999603,3.880386 38.999603,8.666931l0,34.666245c0,4.786926 -17.460327,8.666519 -38.999603,8.666519c-21.539154,0 -39.000427,-3.879593 -39.000427,-8.666519l0,-34.666245z" id="svg_7"/>
  <rect fill="#000000" stroke-width="2" fill-opacity="0" x="375" y="382.783328" width="148.999996" height="59.000007" id="svg_20" stroke="#666666"/>
  <text fill="#333333" stroke-width="0" stroke-dasharray="null" stroke-linejoin="null" stroke-linecap="null" x="544.220016" y="479.025763" font-size="24" font-family="Sans-serif" text-anchor="middle" xml:space="preserve" transform="matrix(0.746268630027771,0,0,0.7819420695304871,7.865672469139099,45.35945669282228) " stroke="#666666" id="svg_21">board B</text>
  <g id="svg_4">
   <rect stroke="#666666" id="svg_1" fill="#000000" stroke-width="2" fill-opacity="0" x="289.5" y="379.000004" width="34.999999" height="74.000009"/>
   <text id="svg_3" fill="#333333" stroke-width="0" stroke-dasharray="null" stroke-linejoin="null" stroke-linecap="null" x="383.131418" y="233.446401" font-size="24" font-family="Sans-serif" text-anchor="middle" xml:space="preserve" transform="rotate(90 307.05108642578125,415.4529113769532) matrix(0.4695956218796482,0,0,0.6981755122740365,127.08433829197509,258.28119804930213) " stroke="#666666">battery</text>
  </g>
  <path transform="rotate(90 379.58996582031256,138.58824157714847) " id="svg_22" d="m393.485321,148.500061c-2.30484,-4.039124 -11.155426,-6.04393 -28.599426,-6.479828l-11.795929,-0.294769l0,-3.5345l0,-3.534897l8.903961,0c10.495514,0 18.002014,-0.726227 24.12561,-2.333145c3.613342,-0.948227 4.813477,-1.553146 6.4487,-3.246994l2.007233,-2.082039l5.756439,5.777061l5.758057,5.777466l-5.822754,5.817093l-5.821136,5.817093l-0.960754,-1.682541z" fill-opacity="0" stroke-linecap="null" stroke-linejoin="null" stroke-dasharray="null" stroke-width="2" stroke="#666666" fill="none"/>
  <path id="svg_23" d="m358.576385,421.385376c-1.565582,-2.743378 -7.576569,-4.105408 -19.426422,-4.401398l-8.012085,-0.199951l0,-2.401154l0,-2.401031l6.047974,0c7.129059,0 12.227692,-0.493073 16.387085,-1.584808c2.454376,-0.644012 3.270569,-1.054871 4.379028,-2.205505l1.364685,-1.414185l3.909882,3.924316l3.911346,3.924072l-3.955078,3.951477l-3.954132,3.951233l-0.652283,-1.143066z" fill-opacity="0" stroke-linecap="null" stroke-linejoin="null" stroke-dasharray="null" stroke-width="2" stroke="#666666" fill="none"/>
  <text id="svg_24" fill="#333333" stroke-width="0" stroke-dasharray="null" stroke-linejoin="null" stroke-linecap="null" x="501.341588" y="75.184185" font-size="24" font-family="Sans-serif" text-anchor="middle" xml:space="preserve" transform="matrix(0.746268630027771,0,0,0.7819420695304871,7.865672469139099,45.35945669282228) " stroke="#666666">power input</text>
  <path id="svg_25" fill="#ffffff" stroke-width="2" stroke-dasharray="null" stroke-linejoin="null" stroke-linecap="null" d="m504.5,362.833618c0,2.945282 -9.625549,5.333282 -21.499756,5.333282m21.499756,-5.333282l0,0c0,2.945282 -9.625549,5.333282 -21.499756,5.333282c-11.874207,0 -21.500275,-2.388 -21.500275,-5.333282m0,0l0,0c0,-2.945557 9.626068,-5.333466 21.500275,-5.333466c11.874207,0 21.499756,2.387909 21.499756,5.333466l0,21.333008c0,2.94577 -9.625549,5.333221 -21.499756,5.333221c-11.874207,0 -21.500275,-2.387451 -21.500275,-5.333221l0,-21.333008z" stroke="#666666"/>
  <path fill="#ffffff" stroke-width="2" stroke-dasharray="null" stroke-linejoin="null" stroke-linecap="null" d="m351.000031,267.833618c0,2.945282 -9.62558,5.333282 -21.499786,5.333282m21.499786,-5.333282l0,0c0,2.945282 -9.62558,5.333282 -21.499786,5.333282c-11.874176,0 -21.500244,-2.388 -21.500244,-5.333282m0,0l0,0c0,-2.945557 9.626068,-5.333466 21.500244,-5.333466c11.874207,0 21.499786,2.387909 21.499786,5.333466l0,21.333008c0,2.94577 -9.62558,5.333221 -21.499786,5.333221c-11.874176,0 -21.500244,-2.387451 -21.500244,-5.333221l0,-21.333008z" id="svg_18" transform="rotate(180 329.5,278.5) " stroke="#666666"/>
  <text id="svg_26" fill="#333333" stroke-width="0" stroke-dasharray="null" stroke-linejoin="null" stroke-linecap="null" x="809.029767" y="383.838384" font-size="24" font-family="Sans-serif" text-anchor="middle" xml:space="preserve" transform="matrix(0.4695956218796482,0,0,0.6981755122740365,160.0843382919751,105.2811980493021) " stroke="#666666">wireless B</text>
  <path transform="rotate(-89.68299865722656 443.30810546875,338.4830627441406) " fill-opacity="0" id="svg_27" d="m428.371063,339.418884c3.73233,0 7.239105,1.464844 9.876648,4.113464c2.641266,2.648621 4.091217,6.184998 4.091217,9.943359l5.752197,0c0,-10.920013 -8.848419,-19.805267 -19.720062,-19.805267l0,5.748444l0,0zm0.007324,-10.187347c13.302094,0 24.118347,10.875549 24.118347,24.251526l5.752167,0c0,-16.542511 -13.401917,-30 -29.870514,-30l0,5.748474l0,0zm7.953186,20.226898c0,2.20462 -1.782959,3.987701 -3.983978,3.987701s-3.980286,-1.783081 -3.980286,-3.987701c0,-2.197357 1.78302,-3.980377 3.980286,-3.980377s3.983978,1.78302 3.983978,3.980377z" stroke-linecap="null" stroke-linejoin="null" stroke-dasharray="null" stroke-width="2" stroke="#666666" fill="#000000"/>
  <path transform="rotate(89.8957290649414 371.5406494140625,308.0827331542969) " stroke="#666666" id="svg_29" d="m356.547974,309.052002c3.743591,0 7.263794,1.517242 9.908752,4.261627c2.651367,2.743469 4.11438,6.407104 4.11438,10.300262l5.771484,0c0,-11.312042 -8.883362,-20.509827 -19.794617,-20.509827l0,5.947937l0,0zm0.007324,-10.553436c13.354797,0 24.213867,11.266724 24.213867,25.12384l5.771484,0c0,-17.138123 -13.451843,-31.079346 -29.985352,-31.079346l0,5.955505l0,0zm7.984314,20.961426c0,2.276764 -1.78894,4.123688 -4.002686,4.123688s-3.996277,-1.846924 -3.996277,-4.123688c0,-2.275848 1.789856,-4.131256 3.996277,-4.131256s4.002686,1.84787 4.002686,4.131256z" fill-opacity="0" stroke-linecap="null" stroke-linejoin="null" stroke-dasharray="null" stroke-width="2" fill="#000000"/>
  <path id="svg_30" transform="rotate(-133.39955139160156 201.9999694824219,147.46780395507815) " fill-opacity="0" d="m187.062927,148.403625c3.73233,0 7.239105,1.464844 9.876648,4.113464c2.641266,2.648621 4.091217,6.184998 4.091217,9.943359l5.752197,0c0,-10.920013 -8.848419,-19.805267 -19.720062,-19.805267l0,5.748444l0,0zm0.007324,-10.187347c13.302094,0 24.118347,10.875549 24.118347,24.251526l5.752167,0c0,-16.542511 -13.401917,-30 -29.870514,-30l0,5.748474l0,0zm7.953186,20.226898c0,2.20462 -1.782959,3.987701 -3.983978,3.987701s-3.980286,-1.783081 -3.980286,-3.987701c0,-2.197357 1.78302,-3.980377 3.980286,-3.980377s3.983978,1.78302 3.983978,3.980377z" stroke-linecap="null" stroke-linejoin="null" stroke-dasharray="null" stroke-width="2" stroke="#666666" fill="#000000"/>
  <text fill="#333333" stroke-width="0" stroke-dasharray="null" stroke-linejoin="null" stroke-linecap="null" x="-155.629993" y="190.477263" font-size="24" font-family="Sans-serif" text-anchor="middle" xml:space="preserve" transform="matrix(0.4695956218796482,0,0,0.6981755122740365,347.5832930649243,40.94291069578651) " stroke="#666666" id="svg_14">wireless A</text>
  <path transform="rotate(-157.3905487060547 536.7589111328125,416.7579650878906) " fill-opacity="0" id="svg_31" d="m557.972656,434.331116c-7.953674,7.953949 -20.257385,9.573883 -29.999084,3.949402c-9.740601,-5.62381 -14.49054,-17.089783 -11.57959,-27.955414c2.912537,-10.865295 12.758179,-18.420105 24.006348,-18.420105l17.572327,42.426117l0,0z" stroke-linecap="null" stroke-linejoin="null" stroke-dasharray="null" stroke-width="2" stroke="#666666" fill="#000000"/>
  <text id="svg_34" fill="#333333" stroke-width="0" stroke-dasharray="null" stroke-linejoin="null" stroke-linecap="null" x="902.723439" y="448.291152" font-size="24" font-family="Sans-serif" text-anchor="middle" xml:space="preserve" transform="matrix(0.4695956218796482,0,0,0.6981755122740365,160.0843382919751,105.2811980493021) " stroke="#666666">sensor</text>
 </g>
</svg>